<svg version="1.1" id="Layer_1" xmlns="http://www.w3.org/2000/svg" xmlns:xlink="http://www.w3.org/1999/xlink" x="0px" y="0px"
	 width="100%" viewBox="0 0 500 89" enable-background="new 0 0 500 89" xml:space="preserve">
<path fill="#FEFEFE" opacity="1.000000" stroke="none" 
	d="
M373.000000,90.000000 
	C248.719223,90.000000 124.938454,90.000000 1.078841,90.000000 
	C1.078841,60.398659 1.078841,30.797060 1.078841,1.097728 
	C167.666626,1.097728 334.333313,1.097728 500.972839,1.097728 
	C500.972839,30.728083 500.972839,60.364056 500.972839,90.000000 
	C458.463776,90.000000 415.981903,90.000000 373.000000,90.000000 
M359.529694,41.668789 
	C360.134552,41.621666 360.739441,41.574547 361.344299,41.527420 
	C360.715973,40.517361 360.087646,39.507305 359.261566,37.778206 
	C361.887146,31.888636 367.392120,31.889341 373.520660,31.763821 
	C363.842987,26.550135 352.739838,30.976809 351.328796,39.885803 
	C353.917206,40.330338 356.509277,40.775501 359.529694,41.668789 
M258.896942,70.926315 
	C259.927887,70.292091 260.958862,69.657875 262.675201,69.232239 
	C266.853516,70.739418 271.074280,72.140457 275.196442,73.788124 
	C278.362610,75.053650 281.404541,76.629890 284.680878,78.151131 
	C286.970856,74.889191 286.357269,70.484879 282.155487,68.115929 
	C279.476990,66.605812 276.323364,65.904266 273.339996,64.978073 
	C269.902771,63.910992 266.418396,62.995819 263.117676,61.237053 
	C266.343964,60.637428 269.570251,60.037804 272.339355,59.523155 
	C260.299133,54.372746 258.184784,44.116524 259.644745,32.035625 
	C250.365891,38.336452 250.494888,51.535023 259.652588,57.869766 
	C261.288361,59.001297 263.404144,59.655479 260.671631,62.520943 
	C260.766632,64.039719 260.861633,65.558487 260.602936,67.574165 
	C259.714874,68.393242 258.826843,69.212318 257.186829,69.975929 
	C251.592834,72.095993 250.193008,76.663727 253.979263,80.442482 
	C258.567719,85.021828 274.144409,86.129379 278.536438,82.984352 
	C273.481415,81.385017 267.633514,79.801445 262.009125,77.636963 
	C259.402527,76.633835 257.150452,74.543747 258.896942,70.926315 
M375.143433,48.165642 
	C373.929779,47.312691 372.716125,46.459740 371.502502,45.606789 
	C371.213440,46.110062 370.924377,46.613338 370.635315,47.116611 
	C372.361420,47.957390 374.087494,48.798164 375.951691,50.443199 
	C375.646729,53.622356 375.341766,56.801514 374.339600,60.049000 
	C372.439972,61.494125 370.540344,62.939255 368.017914,64.858177 
	C372.442383,65.076767 374.196259,63.126930 375.766296,60.358540 
	C375.907440,62.454319 376.048553,64.550102 376.197052,66.754913 
	C378.991913,66.754913 381.553131,66.754913 384.087799,66.754913 
	C384.087799,66.006027 384.182251,65.490692 384.073792,65.022324 
	C382.064362,56.342724 380.030731,47.668728 377.945465,38.383625 
	C377.534271,38.051170 377.123077,37.718719 376.711884,37.386272 
	C376.468903,37.908115 376.225922,38.429958 375.996643,39.842136 
	C375.940857,42.747761 375.885040,45.653381 375.143433,48.165642 
M201.270981,72.166954 
	C194.189346,78.584465 186.155411,78.695023 177.683060,75.580215 
	C176.381775,83.312012 178.341080,85.458313 185.828400,84.397598 
	C193.410156,83.323502 198.844650,79.138374 202.806595,72.082115 
	C202.782364,71.839363 202.758133,71.596611 202.733902,71.353867 
	C202.460709,71.538078 202.187515,71.722298 201.270981,72.166954 
M101.281540,55.746521 
	C102.052612,62.029312 105.253502,66.072220 111.697258,67.275894 
	C118.935204,68.627922 126.365120,65.520355 129.955643,60.048367 
	C124.225067,60.048367 117.961655,60.596565 111.865730,59.823692 
	C108.681313,59.419960 105.791473,56.692715 102.758591,54.092209 
	C102.409790,39.553345 107.388390,26.174862 112.354568,12.445563 
	C108.401825,12.445563 105.024582,12.445563 101.401787,12.445563 
	C101.401787,26.846195 101.401787,40.929859 101.281540,55.746521 
M240.727417,64.963150 
	C248.489807,61.426891 249.608627,46.378124 246.435104,38.758518 
	C243.520325,31.760191 239.120514,29.345423 230.722244,30.418709 
	C240.298233,37.364643 244.174652,52.190971 239.114227,64.701241 
	C238.919708,65.034943 238.725174,65.368637 238.530655,65.702347 
	C239.029938,65.479980 239.529221,65.257614 240.727417,64.963150 
M397.232208,36.018208 
	C397.232208,34.061897 397.232208,32.105587 397.232208,29.678841 
	C393.421570,31.019541 390.167053,32.164577 386.574738,33.428455 
	C387.525635,33.965939 388.329376,34.206524 388.330811,34.451801 
	C388.393219,45.140747 388.384644,55.830101 388.384644,66.766724 
	C392.108734,66.766724 394.522675,66.766724 397.316528,66.766724 
	C397.316528,61.839996 397.334198,57.042049 397.311157,52.244301 
	C397.290955,48.036198 397.225098,43.828312 397.574280,38.934654 
	C402.153809,36.670612 406.765900,34.666477 411.875763,37.929199 
	C412.969482,35.108025 413.786957,32.999432 414.596863,30.910393 
	C408.424622,28.157143 404.251343,29.184141 400.387634,33.982731 
	C399.478149,35.112270 398.169769,35.920624 397.232208,36.018208 
M167.256699,61.027130 
	C159.990601,63.640251 155.036163,60.937439 153.887238,53.452328 
	C152.558914,44.798557 154.727203,37.197239 161.610336,31.033714 
	C159.558899,31.227331 157.797028,31.591787 156.260437,32.389969 
	C148.317917,36.515724 144.166016,46.599613 146.402252,56.450905 
	C147.463593,61.126442 149.344452,65.398605 154.452866,66.988472 
	C159.653885,68.607155 163.868256,66.848854 167.355530,62.871300 
	C167.746414,62.425449 168.449905,62.253643 168.911545,62.842575 
	C168.975876,64.113533 169.040192,65.384483 169.103271,66.631012 
	C171.846176,66.631012 174.223450,66.631012 176.729767,66.631012 
	C176.729767,48.346619 176.729767,30.443405 176.729767,12.222138 
	C173.231369,13.368362 169.963715,14.438990 167.775345,15.155994 
	C169.487259,30.532867 169.359879,45.769131 167.256699,61.027130 
M37.260929,27.763912 
	C33.710358,22.693260 33.373589,15.407129 26.877123,11.933177 
	C26.418571,14.384315 25.125988,16.839024 25.866758,18.053959 
	C30.826984,26.189220 32.739948,36.004364 40.076519,42.878326 
	C43.608749,46.187832 46.214775,50.485874 50.129814,55.468441 
	C51.936520,55.000984 55.053509,54.194515 58.614769,54.078709 
	C60.295238,56.420692 61.135750,55.630074 62.374172,53.470314 
	C64.246040,50.205845 66.224350,46.839901 68.842819,44.195839 
	C77.466545,35.487831 81.939674,25.005308 83.727936,13.149215 
	C75.952042,15.255814 77.129768,24.217571 71.625000,28.325544 
	C71.625000,26.309614 71.625000,24.739573 71.625000,21.531301 
	C66.967476,26.168837 63.228283,29.617640 59.839508,33.381905 
	C58.144299,35.264946 57.088612,37.723724 55.211208,39.559551 
	C50.752621,32.920143 45.256584,27.353273 39.077522,22.492525 
	C38.656021,22.781677 38.234524,23.070831 37.813026,23.359983 
	C38.112576,24.730700 38.412128,26.101418 38.243259,27.789719 
	C38.106560,27.916059 37.969864,28.042398 37.260929,27.763912 
M41.736008,65.787216 
	C40.305351,65.274101 38.874699,64.760986 36.539928,63.923603 
	C41.282585,60.641750 45.255745,61.544628 48.663677,63.308079 
	C53.359585,65.737999 57.409676,69.450356 62.160789,71.728195 
	C65.880852,73.511734 70.253716,74.812019 74.322151,74.774338 
	C79.741913,74.724136 81.664391,69.962799 78.515266,65.553879 
	C75.197502,60.908867 70.557465,58.993351 63.759930,59.680805 
	C65.660202,60.909294 66.930565,61.391899 67.683456,62.302402 
	C68.639633,63.458740 69.176079,64.962158 69.893501,66.315918 
	C68.446762,66.894730 66.879021,68.144531 65.578949,67.910080 
	C63.018574,67.448341 60.514687,66.348495 58.153748,65.177322 
	C53.986771,63.110237 50.056271,60.542076 45.819992,58.645565 
	C41.099709,56.532368 36.157238,56.028904 31.473383,59.001263 
	C27.411762,61.578758 25.720547,67.278275 27.733223,71.274513 
	C29.657394,75.095024 34.249237,76.406403 39.021343,73.802246 
	C42.859173,71.707916 46.257919,68.808990 49.851490,66.267075 
	C49.669476,65.972687 49.487457,65.678291 49.305443,65.383904 
	C47.058453,65.528152 44.811466,65.672401 41.736008,65.787216 
M439.057068,33.502945 
	C439.057068,44.594456 439.057068,55.685966 439.057068,66.636032 
	C442.101318,66.636032 444.493927,66.636032 446.968140,66.636032 
	C446.968140,48.330208 446.968140,30.393885 446.968140,12.172769 
	C443.476990,13.401834 440.285706,14.525322 438.121704,15.287160 
	C439.840515,21.182732 438.726379,26.925919 439.057068,33.502945 
M428.668182,34.493576 
	C428.668182,29.422598 428.668182,24.351618 428.668182,19.100233 
	C424.625122,23.087357 420.934326,26.727085 418.041748,29.579651 
	C418.893555,31.638535 420.225800,33.417400 420.278229,35.233215 
	C420.513672,43.390438 420.233337,51.561962 420.437500,59.720860 
	C420.595337,66.028824 424.424622,68.956932 429.312164,66.791412 
	C431.050079,66.021400 432.596497,64.819130 434.230316,63.814186 
	C429.414886,63.881374 428.594910,61.120255 428.619385,57.485992 
	C428.668732,50.155403 428.652710,42.824375 428.668182,34.493576 
M463.598389,29.679922 
	C460.178223,29.969820 456.758057,30.259718 453.337891,30.549616 
	C453.388733,30.956142 453.439575,31.362667 453.490417,31.769192 
	C461.929382,32.284401 461.951691,32.307407 461.954254,41.278549 
	C461.956696,49.719269 461.954803,58.159988 461.954803,66.726059 
	C464.807312,66.726059 467.193146,66.726059 469.838043,66.726059 
	C469.838043,56.994389 469.980194,47.541336 469.765778,38.096375 
	C469.683777,34.483059 468.223480,31.265310 463.598389,29.679922 
M345.205322,42.522919 
	C340.494995,35.753761 333.302826,34.562912 325.874207,33.997570 
	C320.088165,33.557224 314.068756,34.064163 308.901215,28.187511 
	C310.397003,35.012825 313.187866,39.241791 318.640625,41.090397 
	C322.391602,42.362053 326.333649,43.064564 330.179443,44.063370 
	C335.817383,45.527626 341.445587,47.029388 347.206360,48.549042 
	C346.879395,47.399723 346.271210,45.261749 345.205322,42.522919 
M131.993652,39.497765 
	C131.993652,45.187046 131.993652,50.876328 131.993652,56.565605 
	C142.514420,43.048351 139.530548,27.605396 139.910416,12.425804 
	C137.051712,12.425804 134.796860,12.425804 131.993378,12.425804 
	C131.993378,21.273928 131.993378,29.886333 131.993652,39.497765 
M188.640472,30.595295 
	C186.141968,30.338861 183.643448,30.082426 180.653854,29.775589 
	C181.607971,34.417366 182.224792,38.191422 183.176270,41.879128 
	C184.919098,48.633873 186.535950,55.450016 188.820236,62.026997 
	C190.637604,67.259567 194.199875,68.478844 197.660004,66.867836 
	C194.713409,54.904266 191.819809,43.155853 188.640472,30.595295 
M479.545929,67.009521 
	C481.166962,67.009521 482.787964,67.009521 484.621948,67.009521 
	C484.621948,54.436474 484.621948,42.287064 484.621948,29.743895 
	C480.864594,31.042482 477.484375,32.210724 475.209869,32.996822 
	C475.832123,35.089748 476.797180,36.891178 476.835144,38.711929 
	C477.004669,46.845303 476.834991,54.985577 476.986206,63.119678 
	C477.010406,64.421532 478.043396,65.704636 479.545929,67.009521 
M316.247742,21.303797 
	C325.794769,18.417118 335.119171,19.745632 344.200165,23.230406 
	C347.216583,14.502774 347.055206,13.873402 338.554993,12.548635 
	C334.022552,11.842249 329.257202,11.723199 324.703583,12.253878 
	C315.978851,13.270659 311.225677,17.926399 309.672546,26.071608 
	C311.708221,24.550245 313.629883,23.114111 316.247742,21.303797 
M309.994873,57.313496 
	C308.015381,60.301105 308.663330,62.376472 311.947784,63.953117 
	C319.070587,67.372276 326.382660,68.746040 334.073425,66.335587 
	C338.834656,64.843307 342.949951,62.435894 346.037933,56.207996 
	C333.231873,62.093330 322.269073,60.585190 311.827179,53.739983 
	C311.164429,54.950840 310.701355,55.796844 309.994873,57.313496 
M225.749969,53.490067 
	C223.467560,46.003700 222.514206,38.537441 226.769211,30.834513 
	C217.917831,34.800800 214.473358,48.328316 219.088181,58.630692 
	C222.172821,65.516991 229.046295,68.994606 233.686661,67.000160 
	C231.157745,62.836124 228.555344,58.551071 225.749969,53.490067 
M352.229218,64.228737 
	C356.494415,67.962135 361.335815,68.247482 366.534119,66.634140 
	C362.566040,64.428650 356.730133,62.994823 358.465118,57.103283 
	C359.736298,52.786785 363.198792,49.033722 366.041962,45.301785 
	C367.201172,43.780186 369.304840,42.978107 371.726898,41.343937 
	C363.627594,41.267719 351.653748,51.077560 350.671265,58.009769 
	C350.417725,59.798786 351.368774,61.758526 352.229218,64.228737 
M208.956284,27.709517 
	C205.024994,24.345963 203.512558,28.697239 200.577621,29.873596 
	C206.291565,35.260990 207.633804,41.668430 206.671188,48.487946 
	C205.928604,53.748833 203.855316,58.879177 207.177841,65.194870 
	C208.670181,58.155701 210.254181,51.960682 211.238007,45.671776 
	C212.156174,39.802624 213.067795,33.764416 208.956284,27.709517 
M281.030090,35.600765 
	C277.307068,30.090984 271.980835,29.255062 267.362915,30.028191 
	C269.987213,33.859352 273.828094,37.702995 275.450195,42.325268 
	C277.108582,47.050945 276.590790,52.540295 276.987305,57.241070 
	C283.762634,53.823647 285.856354,45.770718 281.030090,35.600765 
M58.860741,17.721222 
	C55.264374,15.602228 52.152866,16.435812 49.735516,19.572102 
	C47.622276,22.313841 48.187073,28.121984 51.259834,29.794935 
	C53.286961,30.898596 56.864182,31.148375 58.768105,30.062893 
	C62.528629,27.918913 62.952774,24.033941 60.922699,20.123755 
	C60.548111,19.402246 59.979332,18.781557 58.860741,17.721222 
M484.868652,21.843319 
	C483.107788,20.697271 481.459564,19.081167 479.534607,18.619898 
	C478.678436,18.414747 476.175323,20.730457 476.322876,21.565636 
	C476.663635,23.493876 477.777222,26.237206 479.279877,26.811443 
	C482.462463,28.027651 484.588654,26.106098 484.868652,21.843319 
M376.005890,34.705608 
	C375.767548,34.781258 375.529175,34.856907 375.290833,34.932552 
	C375.559357,35.197750 375.827881,35.462948 376.096405,35.728146 
	C376.170258,35.489685 376.244110,35.251225 376.005890,34.705608 
M373.967072,39.164337 
	C373.550507,39.263821 373.133911,39.363304 372.717316,39.462803 
	C372.808105,39.587723 372.915375,39.828651 372.986969,39.818470 
	C373.409332,39.758423 373.823364,39.639969 373.967072,39.164337 
M166.475784,30.372927 
	C166.530624,30.159971 166.585480,29.947016 166.640335,29.734060 
	C166.505554,29.870979 166.370758,30.007896 166.475784,30.372927 
M347.518616,51.496380 
	C347.518616,51.496380 347.482300,51.511654 347.518616,51.496380 
z"/>
<path fill="#F39C28" opacity="1.000000" stroke="none" 
	d="
M58.170498,53.388046 
	C55.053509,54.194515 51.936520,55.000984 50.129814,55.468441 
	C46.214775,50.485874 43.608749,46.187832 40.076519,42.878326 
	C32.739948,36.004364 30.826984,26.189220 25.866758,18.053959 
	C25.125988,16.839024 26.418571,14.384315 26.877123,11.933177 
	C33.373589,15.407129 33.710358,22.693260 37.609703,28.209902 
	C38.196758,28.880068 38.435032,29.104244 38.848557,29.588139 
	C39.350193,29.783421 39.676582,29.718983 40.002968,29.654545 
	C39.815826,29.295404 39.628685,28.936266 39.365910,28.363945 
	C39.144009,27.884804 38.951145,27.658594 38.711678,27.472136 
	C38.412128,26.101418 38.112576,24.730700 37.813026,23.359983 
	C38.234524,23.070831 38.656021,22.781677 39.077522,22.492525 
	C45.256584,27.353273 50.752621,32.920143 55.564667,40.078850 
	C56.668915,44.861450 57.419708,49.124748 58.170498,53.388046 
z"/>
<path fill="#F49E2C" opacity="1.000000" stroke="none" 
	d="
M42.150242,65.801926 
	C44.811466,65.672401 47.058453,65.528152 49.305443,65.383904 
	C49.487457,65.678291 49.669476,65.972687 49.851490,66.267075 
	C46.257919,68.808990 42.859173,71.707916 39.021343,73.802246 
	C34.249237,76.406403 29.657394,75.095024 27.733223,71.274513 
	C25.720547,67.278275 27.411762,61.578758 31.473383,59.001263 
	C36.157238,56.028904 41.099709,56.532368 45.819992,58.645565 
	C50.056271,60.542076 53.986771,63.110237 58.153748,65.177322 
	C60.514687,66.348495 63.018574,67.448341 65.578949,67.910080 
	C66.879021,68.144531 68.446762,66.894730 69.893501,66.315918 
	C69.176079,64.962158 68.639633,63.458740 67.683456,62.302402 
	C66.930565,61.391899 65.660202,60.909294 63.759930,59.680805 
	C70.557465,58.993351 75.197502,60.908867 78.515266,65.553879 
	C81.664391,69.962799 79.741913,74.724136 74.322151,74.774338 
	C70.253716,74.812019 65.880852,73.511734 62.160789,71.728195 
	C57.409676,69.450356 53.359585,65.737999 48.663677,63.308079 
	C45.255745,61.544628 41.282585,60.641750 36.539928,63.923603 
	C38.874699,64.760986 40.305351,65.274101 42.150242,65.801926 
z"/>
<path fill="#37A631" opacity="1.000000" stroke="none" 
	d="
M58.392632,53.733376 
	C57.419708,49.124748 56.668915,44.861450 55.830898,40.260124 
	C57.088612,37.723724 58.144299,35.264946 59.839508,33.381905 
	C63.228283,29.617640 66.967476,26.168837 71.625000,21.531301 
	C71.625000,24.739573 71.625000,26.309614 71.625000,28.325544 
	C77.129768,24.217571 75.952042,15.255814 83.727936,13.149215 
	C81.939674,25.005308 77.466545,35.487831 68.842819,44.195839 
	C66.224350,46.839901 64.246040,50.205845 62.374172,53.470314 
	C61.135750,55.630074 60.295238,56.420692 58.392632,53.733376 
z"/>
<path fill="#F39C28" opacity="1.000000" stroke="none" 
	d="
M168.082748,61.041447 
	C169.359879,45.769131 169.487259,30.532867 167.775345,15.155994 
	C169.963715,14.438990 173.231369,13.368362 176.729767,12.222138 
	C176.729767,30.443405 176.729767,48.346619 176.729767,66.631012 
	C174.223450,66.631012 171.846176,66.631012 169.103271,66.631012 
	C169.040192,65.384483 168.975876,64.113533 168.861298,62.194637 
	C168.631622,61.286976 168.388840,61.118557 168.082748,61.041447 
z"/>
<path fill="#32A42D" opacity="1.000000" stroke="none" 
	d="
M439.057068,33.004219 
	C438.726379,26.925919 439.840515,21.182732 438.121704,15.287160 
	C440.285706,14.525322 443.476990,13.401834 446.968140,12.172769 
	C446.968140,30.393885 446.968140,48.330208 446.968140,66.636032 
	C444.493927,66.636032 442.101318,66.636032 439.057068,66.636032 
	C439.057068,55.685966 439.057068,44.594456 439.057068,33.004219 
z"/>
<path fill="#44AC3E" opacity="1.000000" stroke="none" 
	d="
M428.665894,34.993553 
	C428.652710,42.824375 428.668732,50.155403 428.619385,57.485992 
	C428.594910,61.120255 429.414886,63.881374 434.230316,63.814186 
	C432.596497,64.819130 431.050079,66.021400 429.312164,66.791412 
	C424.424622,68.956932 420.595337,66.028824 420.437500,59.720860 
	C420.233337,51.561962 420.513672,43.390438 420.278229,35.233215 
	C420.225800,33.417400 418.893555,31.638535 418.041748,29.579651 
	C420.934326,26.727085 424.625122,23.087357 428.668182,19.100233 
	C428.668182,24.351618 428.668182,29.422598 428.665894,34.993553 
z"/>
<path fill="#39A733" opacity="1.000000" stroke="none" 
	d="
M397.179382,39.620331 
	C397.225098,43.828312 397.290955,48.036198 397.311157,52.244301 
	C397.334198,57.042049 397.316528,61.839996 397.316528,66.766724 
	C394.522675,66.766724 392.108734,66.766724 388.384644,66.766724 
	C388.384644,55.830101 388.393219,45.140747 388.330811,34.451801 
	C388.329376,34.206524 387.525635,33.965939 386.574738,33.428455 
	C390.167053,32.164577 393.421570,31.019541 397.232208,29.678841 
	C397.232208,32.105587 397.232208,34.061897 397.121307,36.731979 
	C397.066742,38.170612 397.123047,38.895473 397.179382,39.620331 
z"/>
<path fill="#F49E2D" opacity="1.000000" stroke="none" 
	d="
M167.669724,61.034286 
	C168.388840,61.118557 168.631622,61.286976 168.909744,61.750725 
	C168.449905,62.253643 167.746414,62.425449 167.355530,62.871300 
	C163.868256,66.848854 159.653885,68.607155 154.452866,66.988472 
	C149.344452,65.398605 147.463593,61.126442 146.402252,56.450905 
	C144.166016,46.599613 148.317917,36.515724 156.260437,32.389969 
	C157.797028,31.591787 159.558899,31.227331 161.610336,31.033714 
	C154.727203,37.197239 152.558914,44.798557 153.887238,53.452328 
	C155.036163,60.937439 159.990601,63.640251 167.669724,61.034286 
z"/>
<path fill="#35A62F" opacity="1.000000" stroke="none" 
	d="
M463.974731,29.791924 
	C468.223480,31.265310 469.683777,34.483059 469.765778,38.096375 
	C469.980194,47.541336 469.838043,56.994389 469.838043,66.726059 
	C467.193146,66.726059 464.807312,66.726059 461.954803,66.726059 
	C461.954803,58.159988 461.956696,49.719269 461.954254,41.278549 
	C461.951691,32.307407 461.929382,32.284401 453.490417,31.769192 
	C453.439575,31.362667 453.388733,30.956142 453.337891,30.549616 
	C456.758057,30.259718 460.178223,29.969820 463.974731,29.791924 
z"/>
<path fill="#37A732" opacity="1.000000" stroke="none" 
	d="
M345.434174,42.823349 
	C346.271210,45.261749 346.879395,47.399723 347.206360,48.549042 
	C341.445587,47.029388 335.817383,45.527626 330.179443,44.063370 
	C326.333649,43.064564 322.391602,42.362053 318.640625,41.090397 
	C313.187866,39.241791 310.397003,35.012825 308.901215,28.187511 
	C314.068756,34.064163 320.088165,33.557224 325.874207,33.997570 
	C333.302826,34.562912 340.494995,35.753761 345.434174,42.823349 
z"/>
<path fill="#F39C27" opacity="1.000000" stroke="none" 
	d="
M131.993515,38.998253 
	C131.993378,29.886333 131.993378,21.273928 131.993378,12.425804 
	C134.796860,12.425804 137.051712,12.425804 139.910416,12.425804 
	C139.530548,27.605396 142.514420,43.048351 131.993652,56.565605 
	C131.993652,50.876328 131.993652,45.187046 131.993515,38.998253 
z"/>
<path fill="#F39D29" opacity="1.000000" stroke="none" 
	d="
M188.783340,31.001369 
	C191.819809,43.155853 194.713409,54.904266 197.660004,66.867836 
	C194.199875,68.478844 190.637604,67.259567 188.820236,62.026997 
	C186.535950,55.450016 184.919098,48.633873 183.176270,41.879128 
	C182.224792,38.191422 181.607971,34.417366 180.653854,29.775589 
	C183.643448,30.082426 186.141968,30.338861 188.783340,31.001369 
z"/>
<path fill="#35A62F" opacity="1.000000" stroke="none" 
	d="
M479.077972,67.002960 
	C478.043396,65.704636 477.010406,64.421532 476.986206,63.119678 
	C476.834991,54.985577 477.004669,46.845303 476.835144,38.711929 
	C476.797180,36.891178 475.832123,35.089748 475.209869,32.996822 
	C477.484375,32.210724 480.864594,31.042482 484.621948,29.743895 
	C484.621948,42.287064 484.621948,54.436474 484.621948,67.009521 
	C482.787964,67.009521 481.166962,67.009521 479.077972,67.002960 
z"/>
<path fill="#37A732" opacity="1.000000" stroke="none" 
	d="
M315.899628,21.490887 
	C313.629883,23.114111 311.708221,24.550245 309.672546,26.071608 
	C311.225677,17.926399 315.978851,13.270659 324.703583,12.253878 
	C329.257202,11.723199 334.022552,11.842249 338.554993,12.548635 
	C347.055206,13.873402 347.216583,14.502774 344.200165,23.230406 
	C335.119171,19.745632 325.794769,18.417118 315.899628,21.490887 
z"/>
<path fill="#37A631" opacity="1.000000" stroke="none" 
	d="
M310.116577,56.978172 
	C310.701355,55.796844 311.164429,54.950840 311.827179,53.739983 
	C322.269073,60.585190 333.231873,62.093330 346.037933,56.207996 
	C342.949951,62.435894 338.834656,64.843307 334.073425,66.335587 
	C326.382660,68.746040 319.070587,67.372276 311.947784,63.953117 
	C308.663330,62.376472 308.015381,60.301105 310.116577,56.978172 
z"/>
<path fill="#F49E2C" opacity="1.000000" stroke="none" 
	d="
M225.851440,53.878044 
	C228.555344,58.551071 231.157745,62.836124 233.686661,67.000160 
	C229.046295,68.994606 222.172821,65.516991 219.088181,58.630692 
	C214.473358,48.328316 217.917831,34.800800 226.769211,30.834513 
	C222.514206,38.537441 223.467560,46.003700 225.851440,53.878044 
z"/>
<path fill="#F39D2A" opacity="1.000000" stroke="none" 
	d="
M239.621704,64.456871 
	C244.174652,52.190971 240.298233,37.364643 230.722244,30.418709 
	C239.120514,29.345423 243.520325,31.760191 246.435104,38.758518 
	C249.608627,46.378124 248.489807,61.426891 240.275146,64.855392 
	C239.822876,64.747627 239.621704,64.456871 239.621704,64.456871 
z"/>
<path fill="#F4A438" opacity="1.000000" stroke="none" 
	d="
M101.401787,55.013523 
	C101.401787,40.929859 101.401787,26.846195 101.401787,12.445563 
	C105.024582,12.445563 108.401825,12.445563 112.354568,12.445563 
	C107.388390,26.174862 102.409790,39.553345 102.535744,54.556763 
	C102.009109,55.028595 101.705406,55.025997 101.401787,55.013523 
z"/>
<path fill="#F49D2B" opacity="1.000000" stroke="none" 
	d="
M260.956604,67.077263 
	C260.861633,65.558487 260.766632,64.039719 261.206207,62.269852 
	C262.145355,62.017399 262.549927,62.016037 262.954498,62.014671 
	C266.418396,62.995819 269.902771,63.910992 273.339996,64.978073 
	C276.323364,65.904266 279.476990,66.605812 282.155487,68.115929 
	C286.357269,70.484879 286.970856,74.889191 284.680878,78.151131 
	C281.404541,76.629890 278.362610,75.053650 275.196442,73.788124 
	C271.074280,72.140457 266.853516,70.739418 262.273682,68.844528 
	C261.566986,67.996964 261.261780,67.537117 260.956604,67.077263 
z"/>
<path fill="#3BA835" opacity="1.000000" stroke="none" 
	d="
M351.997864,63.934288 
	C351.368774,61.758526 350.417725,59.798786 350.671265,58.009769 
	C351.653748,51.077560 363.627594,41.267719 371.726898,41.343937 
	C369.304840,42.978107 367.201172,43.780186 366.041962,45.301785 
	C363.198792,49.033722 359.736298,52.786785 358.465118,57.103283 
	C356.730133,62.994823 362.566040,64.428650 366.534119,66.634140 
	C361.335815,68.247482 356.494415,67.962135 351.997864,63.934288 
z"/>
<path fill="#F49E2D" opacity="1.000000" stroke="none" 
	d="
M263.036072,61.625862 
	C262.549927,62.016037 262.145355,62.017399 261.437561,62.030197 
	C263.404144,59.655479 261.288361,59.001297 259.652588,57.869766 
	C250.494888,51.535023 250.365891,38.336452 259.644745,32.035625 
	C258.184784,44.116524 260.299133,54.372746 272.339355,59.523155 
	C269.570251,60.037804 266.343964,60.637428 263.036072,61.625862 
z"/>
<path fill="#F4A031" opacity="1.000000" stroke="none" 
	d="
M209.180923,28.006378 
	C213.067795,33.764416 212.156174,39.802624 211.238007,45.671776 
	C210.254181,51.960682 208.670181,58.155701 207.177841,65.194870 
	C203.855316,58.879177 205.928604,53.748833 206.671188,48.487946 
	C207.633804,41.668430 206.291565,35.260990 200.577621,29.873596 
	C203.512558,28.697239 205.024994,24.345963 209.180923,28.006378 
z"/>
<path fill="#F49F2E" opacity="1.000000" stroke="none" 
	d="
M281.231384,35.917294 
	C285.856354,45.770718 283.762634,53.823647 276.987305,57.241070 
	C276.590790,52.540295 277.108582,47.050945 275.450195,42.325268 
	C273.828094,37.702995 269.987213,33.859352 267.362915,30.028191 
	C271.980835,29.255062 277.307068,30.090984 281.231384,35.917294 
z"/>
<path fill="#F49F2E" opacity="1.000000" stroke="none" 
	d="
M101.341660,55.380020 
	C101.705406,55.025997 102.009109,55.028595 102.540741,55.018105 
	C105.791473,56.692715 108.681313,59.419960 111.865730,59.823692 
	C117.961655,60.596565 124.225067,60.048367 129.955643,60.048367 
	C126.365120,65.520355 118.935204,68.627922 111.697258,67.275894 
	C105.253502,66.072220 102.052612,62.029312 101.341660,55.380020 
z"/>
<path fill="#37A631" opacity="1.000000" stroke="none" 
	d="
M59.180462,17.917778 
	C59.979332,18.781557 60.548111,19.402246 60.922699,20.123755 
	C62.952774,24.033941 62.528629,27.918913 58.768105,30.062893 
	C56.864182,31.148375 53.286961,30.898596 51.259834,29.794935 
	C48.187073,28.121984 47.622276,22.313841 49.735516,19.572102 
	C52.152866,16.435812 55.264374,15.602228 59.180462,17.917778 
z"/>
<path fill="#F4A02F" opacity="1.000000" stroke="none" 
	d="
M202.421783,72.440666 
	C198.844650,79.138374 193.410156,83.323502 185.828400,84.397598 
	C178.341080,85.458313 176.381775,83.312012 177.683060,75.580215 
	C186.155411,78.695023 194.189346,78.584465 201.718201,72.171524 
	C202.165421,72.176086 202.421783,72.440666 202.421783,72.440666 
z"/>
<path fill="#35A52F" opacity="1.000000" stroke="none" 
	d="
M378.002197,38.993553 
	C380.030731,47.668728 382.064362,56.342724 384.073792,65.022324 
	C384.182251,65.490692 384.087799,66.006027 384.087799,66.754913 
	C381.553131,66.754913 378.991913,66.754913 376.197052,66.754913 
	C376.048553,64.550102 375.907440,62.454319 375.382721,60.179646 
	C374.999146,60.000751 375.036804,59.980671 375.036804,59.980671 
	C375.341766,56.801514 375.646729,53.622356 375.912476,49.863033 
	C375.914093,49.038219 375.899445,48.796932 375.829254,48.559006 
	C375.885040,45.653381 375.940857,42.747761 376.323578,39.299850 
	C377.101074,38.836227 377.551636,38.914890 378.002197,38.993553 
z"/>
<path fill="#F49E2B" opacity="1.000000" stroke="none" 
	d="
M258.279053,71.006683 
	C257.150452,74.543747 259.402527,76.633835 262.009125,77.636963 
	C267.633514,79.801445 273.481415,81.385017 278.536438,82.984352 
	C274.144409,86.129379 258.567719,85.021828 253.979263,80.442482 
	C250.193008,76.663727 251.592834,72.095993 257.641541,70.249695 
	C258.157196,70.684540 258.218109,70.845612 258.279053,71.006683 
z"/>
<path fill="#3EAA39" opacity="1.000000" stroke="none" 
	d="
M359.101349,41.220665 
	C356.509277,40.775501 353.917206,40.330338 351.328796,39.885803 
	C352.739838,30.976809 363.842987,26.550135 373.520660,31.763821 
	C367.392120,31.889341 361.887146,31.888636 359.172852,38.425106 
	C359.089844,39.788227 359.095581,40.504448 359.101349,41.220665 
z"/>
<path fill="#3AA835" opacity="1.000000" stroke="none" 
	d="
M397.376831,39.277493 
	C397.123047,38.895473 397.066742,38.170612 397.027649,37.161243 
	C398.169769,35.920624 399.478149,35.112270 400.387634,33.982731 
	C404.251343,29.184141 408.424622,28.157143 414.596863,30.910393 
	C413.786957,32.999432 412.969482,35.108025 411.875763,37.929199 
	C406.765900,34.666477 402.153809,36.670612 397.376831,39.277493 
z"/>
<path fill="#3BA835" opacity="1.000000" stroke="none" 
	d="
M484.910889,22.226406 
	C484.588654,26.106098 482.462463,28.027651 479.279877,26.811443 
	C477.777222,26.237206 476.663635,23.493876 476.322876,21.565636 
	C476.175323,20.730457 478.678436,18.414747 479.534607,18.619898 
	C481.459564,19.081167 483.107788,20.697271 484.910889,22.226406 
z"/>
<path fill="#F9FDF9" opacity="1.000000" stroke="none" 
	d="
M375.009247,59.981956 
	C374.196259,63.126930 372.442383,65.076767 368.017914,64.858177 
	C370.540344,62.939255 372.439972,61.494125 374.688202,60.014835 
	C375.036804,59.980671 374.999146,60.000751 375.009247,59.981956 
z"/>
<path fill="#F7FBF6" opacity="1.000000" stroke="none" 
	d="
M375.486328,48.362324 
	C375.899445,48.796932 375.914093,49.038219 375.843384,49.460907 
	C374.087494,48.798164 372.361420,47.957390 370.635315,47.116611 
	C370.924377,46.613338 371.213440,46.110062 371.502502,45.606789 
	C372.716125,46.459740 373.929779,47.312691 375.486328,48.362324 
z"/>
<path fill="#FFFCF8" opacity="1.000000" stroke="none" 
	d="
M258.588013,70.966499 
	C258.218109,70.845612 258.157196,70.684540 258.017517,70.277435 
	C258.826843,69.212318 259.714874,68.393242 260.779785,67.325714 
	C261.261780,67.537117 261.566986,67.996964 261.930969,68.740234 
	C260.958862,69.657875 259.927887,70.292091 258.588013,70.966499 
z"/>
<path fill="#F9FCF9" opacity="1.000000" stroke="none" 
	d="
M359.315521,41.444729 
	C359.095581,40.504448 359.089844,39.788227 359.271729,38.784626 
	C360.087646,39.507305 360.715973,40.517361 361.344299,41.527420 
	C360.739441,41.574547 360.134552,41.621666 359.315521,41.444729 
z"/>
<path fill="#F7FBF6" opacity="1.000000" stroke="none" 
	d="
M377.973816,38.688591 
	C377.551636,38.914890 377.101074,38.836227 376.316742,38.854683 
	C376.225922,38.429958 376.468903,37.908115 376.711884,37.386269 
	C377.123077,37.718719 377.534271,38.051170 377.973816,38.688591 
z"/>
<path fill="#F9FCF9" opacity="1.000000" stroke="none" 
	d="
M376.161926,34.859184 
	C376.244110,35.251225 376.170258,35.489685 376.096405,35.728146 
	C375.827881,35.462948 375.559357,35.197750 375.290833,34.932552 
	C375.529175,34.856907 375.767548,34.781258 376.161926,34.859184 
z"/>
<path fill="#F7FBF6" opacity="1.000000" stroke="none" 
	d="
M374.103638,39.352760 
	C373.823364,39.639969 373.409332,39.758423 372.986969,39.818470 
	C372.915375,39.828651 372.808105,39.587723 372.717346,39.462791 
	C373.133911,39.363304 373.550507,39.263821 374.103638,39.352760 
z"/>
<path fill="#FFFCF9" opacity="1.000000" stroke="none" 
	d="
M166.355881,30.258869 
	C166.370758,30.007896 166.505554,29.870979 166.640335,29.734062 
	C166.585480,29.947016 166.530624,30.159971 166.355881,30.258869 
z"/>
<path fill="#F39D2A" opacity="1.000000" stroke="none" 
	d="
M239.925690,64.891441 
	C239.529221,65.257614 239.029938,65.479980 238.530655,65.702347 
	C238.725174,65.368637 238.919708,65.034943 239.367966,64.579056 
	C239.621704,64.456871 239.822876,64.747627 239.925690,64.891441 
z"/>
<path fill="#37A732" opacity="1.000000" stroke="none" 
	d="
M347.500458,51.504017 
	C347.482300,51.511654 347.518616,51.496380 347.500458,51.504017 
z"/>
<path fill="#F4A02F" opacity="1.000000" stroke="none" 
	d="
M202.039871,72.041306 
	C202.187515,71.722298 202.460709,71.538078 202.733902,71.353867 
	C202.758133,71.596611 202.782364,71.839363 202.614197,72.261391 
	C202.421783,72.440666 202.165421,72.176086 202.039871,72.041306 
z"/>
<path fill="#FEFEFE" opacity="1.000000" stroke="none" 
	d="
M38.673309,29.328421 
	C38.435032,29.104244 38.196758,28.880068 37.895821,28.412315 
	C37.969864,28.042398 38.106560,27.916059 38.477470,27.630928 
	C38.951145,27.658594 39.144009,27.884804 39.172245,28.550127 
	C38.927246,29.075802 38.800278,29.202112 38.673309,29.328421 
z"/>
<path fill="#FEFEFE" opacity="1.000000" stroke="none" 
	d="
M39.247879,28.763309 
	C39.628685,28.936266 39.815826,29.295404 40.002968,29.654545 
	C39.676582,29.718983 39.350193,29.783421 38.848557,29.588139 
	C38.800278,29.202112 38.927246,29.075802 39.247879,28.763309 
z"/>
</svg>